<?xml version="1.0"?>
<svg version="1.1" id="圖層_1" xmlns="http://www.w3.org/2000/svg" x="0" y="0" viewBox="0 0 100 100" xml:space="preserve"><path d="M69.932 41.35H42.869L53.268 9.754a3.62 3.62 0 0 0-1.933-4.425 3.623 3.623 0 0 0-4.613 1.431L22.974 46.357l-5.188 8.439c-.998 1.624.17 3.714 2.076 3.714h11.041l27.494-.001-10.105 31.658a3.622 3.622 0 0 0 2 4.42l.252.11a3.622 3.622 0 0 0 4.602-1.535l22.522-39.796 4.596-8.192c.911-1.625-.263-3.824-2.126-3.823H69.932z" fill="#f8b26a"/><metadata xmlns:d="https://loading.io/stock/"><d:name>flashlight</d:name><d:tags>speedlight,lightning,lamp,exposure,illuminate,flashlight,camera</d:tags><d:license>by</d:license><d:slug>qt6ehx</d:slug></metadata></svg>